# xmcd CD database file
#
# Track frame offsets:
#	150
#	35009
#	55150
#	80166
#	118546
#	135021
#	171875
#	199450
#	229902
#	263641
#
# Disc length: 3837 seconds
#
# Revision: 2
# Processed by: cddbd v1.5.2PL0 Copyright (c) Steve Scherf et al.
# Submitted via: CDex 2.09
#
DISCID=870efb0a
DTITLE=Schiller - Morgenstund (Wanderlust) (Limited Ultra Deluxe Edition) Disc 5
DYEAR=2019
DGENRE=New Age
TTITLE0=Schiller - Wanderlust I
TTITLE1=Schiller - Wanderlust II
TTITLE2=Schiller - Wanderlust III
TTITLE3=Schiller - Wanderlust IV
TTITLE4=Schiller - Wanderlust V
TTITLE5=Schiller - Wanderlust VI
TTITLE6=Schiller - Wanderlust VII
TTITLE7=Schiller - Wanderlust VIII
TTITLE8=Schiller - Wanderlust IX
TTITLE9=Schiller - Wanderlust X
EXTD=YEAR: 2019
EXTT0=
EXTT1=
EXTT2=
EXTT3=
EXTT4=
EXTT5=
EXTT6=
EXTT7=
EXTT8=
EXTT9=
PLAYORDER=
